<?xml version="1.0" encoding="UTF-8" standalone="no"?> <svg width="512" height="512" viewBox="0 0 512 512" fill="none" xmlns="http://www.w3.org/2000/svg">
<path fill-rule="evenodd" clip-rule="evenodd" d="M256 32C379.712 32 480 132.288 480 256C480 379.712 379.712 480 256 480C132.288 480 32 379.712 32 256C32 132.288 132.288 32 256 32Z" fill="#2A2FAF"/>
<path fill-rule="evenodd" clip-rule="evenodd" d="M465.887 177.6H46.0938C77.8734 92.5546 159.86 32 255.991 32C352.121 32 434.108 92.5546 465.887 177.6Z" fill="#E92B2B"/>
<path fill-rule="evenodd" clip-rule="evenodd" d="M255.147 479.998C159.381 479.645 77.78 419.196 46.0938 334.398H465.888C434.202 419.196 352.602 479.645 256.835 479.998H255.147Z" fill="#FBFBFB"/>
<path d="M104 289.602V177.602H260.8V289.602C260.8 332.901 225.699 368.002 182.4 368.002C139.101 368.002 104 332.901 104 289.602Z" fill="#E92B2B"/>
<path fill-rule="evenodd" clip-rule="evenodd" d="M204.809 132.8C204.809 142.982 201.7 151.769 197.208 157.758C192.719 163.744 187.372 166.4 182.409 166.4C177.447 166.4 172.1 163.744 167.611 157.758C163.119 151.769 160.009 142.982 160.009 132.8C160.009 122.618 163.119 113.831 167.611 107.842C172.1 101.856 177.447 99.2 182.409 99.2C187.372 99.2 192.719 101.856 197.208 107.842C201.7 113.831 204.809 122.618 204.809 132.8ZM216.009 132.8C216.009 157.542 200.966 177.6 182.409 177.6C163.853 177.6 148.809 157.542 148.809 132.8C148.809 127.06 149.619 121.573 151.094 116.529C136.506 118.394 130.284 124.881 128.22 131.071C125.552 139.075 128.669 149.542 135.97 156.839L128.052 164.761C118.545 155.258 113.262 140.525 117.595 127.529C121.9 114.619 134.741 105.825 156.129 104.884C162.285 94.5938 171.77 88 182.409 88C193.048 88 202.532 94.5926 208.688 104.881C230.116 105.807 242.98 114.606 247.289 127.529C251.622 140.525 246.339 155.258 236.832 164.761L228.915 156.839C236.216 149.542 239.333 139.075 236.664 131.071C234.597 124.872 228.359 118.374 213.722 116.521C215.199 121.567 216.009 127.057 216.009 132.8Z" fill="#FBFBFB"/>
<path d="M120.812 155.203L132.012 177.603H232.812L244.012 155.203H120.812Z" fill="#FFE70E"/>
<path d="M126.406 306.589V212.811C126.406 211.742 126.579 210.68 126.917 209.666C129.255 202.651 138.158 200.549 143.387 205.777L160.006 222.397H171.206V202.237C171.206 201 170.203 199.997 168.966 199.997H162.71C161.712 199.997 161.213 198.79 161.918 198.085L170.55 189.453C170.97 189.033 171.54 188.797 172.134 188.797H182.406H192.678C193.272 188.797 193.842 189.033 194.262 189.453L202.894 198.085C203.6 198.79 203.1 199.997 202.102 199.997H195.846C194.609 199.997 193.606 201 193.606 202.237V222.397H204.806L221.426 205.777C226.654 200.549 235.557 202.651 237.896 209.666C238.234 210.68 238.406 211.742 238.406 212.811V306.589C238.406 308.585 235.993 309.584 234.582 308.173L204.806 278.397L193.606 300.797L210.406 345.597C193.174 354.227 171.814 354.282 154.406 345.597L171.206 300.797L160.006 278.397L130.23 308.173C128.819 309.584 126.406 308.585 126.406 306.589Z" fill="#FBFBFB"/>
</svg>
